<?xml version="1.0" encoding="UTF-8" standalone="no"?><!-- Generator: Gravit.io --><svg xmlns="http://www.w3.org/2000/svg" xmlns:xlink="http://www.w3.org/1999/xlink" style="isolation:isolate" viewBox="0 0 768 256" width="768pt" height="256pt"><defs><clipPath id="_clipPath_O6l9jaRTgghQsa1m8aEjUxpIyVx6KoTb"><rect width="768" height="256"/></clipPath></defs><g clip-path="url(#_clipPath_O6l9jaRTgghQsa1m8aEjUxpIyVx6KoTb)"><g><path d=" M 116.416 32 C 158.896 32 190.432 60.23 191.392 99.124 C 191.416 100.072 191.569 100.954 191.839 101.749 L 208.093 150.534 C 208.668 152.25 208.43 154.135 207.448 155.655 C 206.476 157.188 204.868 158.184 203.065 158.385 L 194.089 159.393 C 192.565 159.558 191.416 160.833 191.416 162.369 L 191.416 189.591 C 191.416 193.856 189.601 197.924 186.424 200.771 C 183.246 203.62 179.003 204.975 174.763 204.497 L 166.057 203.537 L 149.887 201.731 L 151.489 213.824 C 151.833 216.394 151.049 218.987 149.34 220.936 C 147.631 222.886 145.163 224.002 142.57 223.997 L 63.085 224 C 60.533 224.003 58.1 222.922 56.392 221.026 C 54.684 219.131 53.862 216.599 54.13 214.061 L 58.444 173.118 C 58.852 169.218 58.174 165.312 56.476 161.844 C 46.63 141.663 41.416 119.584 41.416 97.999 C 41.416 59.141 72.259 32 116.416 32 Z  M 116.416 38 C 68.755 38 47.416 68.14 47.416 97.999 C 47.416 118.669 52.42 139.848 61.864 159.216 C 64.06 163.721 64.941 168.753 64.408 173.736 L 60.097 214.682 C 60 215.532 60.277 216.383 60.856 217.013 C 61.423 217.645 62.235 218.004 63.085 217.997 L 142.573 217.997 C 143.439 218.004 144.263 217.626 144.823 216.965 C 145.4 216.326 145.662 215.462 145.537 214.61 L 143.743 201.05 L 134.089 199.973 C 132.436 199.787 131.251 198.311 131.428 196.67 C 131.61 195.021 133.093 193.831 134.743 194.009 L 142.933 194.924 L 175.42 198.533 C 177.964 198.817 180.508 198.003 182.416 196.295 C 184.337 194.598 185.43 192.154 185.416 189.591 L 185.416 162.369 C 185.413 157.779 188.869 153.925 193.432 153.429 L 202.396 152.418 L 186.13 103.645 C 185.686 102.286 185.428 100.81 185.392 99.262 C 184.516 63.77 155.512 38 116.416 38 Z  M 116.416 47 C 118.066 47 119.416 48.35 119.416 50 L 119.416 56 C 119.416 57.65 118.066 59 116.416 59 C 114.766 59 113.416 57.65 113.416 56 L 113.416 50 C 113.416 48.35 114.766 47 116.416 47 Z  M 132.694 49.226 C 133.69 49.089 134.69 49.459 135.356 50.213 C 136.022 50.966 136.267 52.003 136.009 52.976 L 134.464 58.766 C 134.112 60.082 132.917 60.997 131.554 60.992 C 131.294 60.994 131.035 60.963 130.783 60.899 C 129.19 60.464 128.227 58.814 128.662 57.218 L 130.21 51.419 C 130.526 50.258 131.502 49.396 132.694 49.229 L 132.694 49.226 Z  M 100.138 49.226 C 101.333 49.386 102.313 50.25 102.622 51.416 L 104.182 57.218 C 104.602 58.811 103.654 60.464 102.061 60.899 C 101.791 60.959 101.533 60.992 101.275 60.992 C 99.916 60.994 98.726 60.08 98.38 58.766 L 96.82 52.976 C 96.398 51.374 97.346 49.732 98.944 49.298 C 99.333 49.193 99.739 49.169 100.138 49.226 Z  M 149.041 55.661 C 149.438 55.711 149.821 55.843 150.166 56.048 C 150.857 56.445 151.36 57.101 151.565 57.871 C 151.769 58.641 151.658 59.461 151.255 60.149 L 148.255 65.326 C 147.706 66.301 146.695 66.826 145.666 66.826 C 145.14 66.832 144.623 66.699 144.166 66.439 C 142.726 65.608 142.246 63.77 143.077 62.33 L 146.077 57.149 C 146.675 56.101 147.843 55.514 149.041 55.661 Z  M 83.791 55.673 C 84.987 55.514 86.161 56.098 86.755 57.149 L 89.755 62.339 C 90.337 63.266 90.366 64.437 89.831 65.392 C 89.296 66.347 88.283 66.935 87.188 66.924 C 86.093 66.912 85.092 66.305 84.577 65.338 L 81.577 60.149 C 81.075 59.28 81.041 58.217 81.486 57.318 C 81.93 56.418 82.796 55.801 83.791 55.673 Z  M 116.509 73.999 C 137.968 73.999 155.416 91.447 155.416 112.906 C 155.416 123.124 150.118 130.542 145.432 137.079 C 141.307 142.848 137.416 148.296 137.416 155.01 L 137.416 160.998 C 137.416 172.578 127.996 181.998 116.416 181.998 C 104.836 181.998 95.416 172.578 95.416 160.998 L 95.416 154.998 C 95.416 148.284 91.561 142.848 87.481 137.079 C 82.843 130.53 77.605 123.112 77.605 112.906 C 77.602 91.447 95.053 73.999 116.506 73.999 L 116.509 73.999 Z  M 116.509 79.999 C 98.368 79.999 83.605 94.765 83.605 112.906 C 83.605 121.216 87.856 127.237 92.368 133.611 C 96.295 139.131 100.315 144.825 101.227 151.998 L 131.605 151.998 C 132.529 144.828 136.606 139.128 140.557 133.587 C 145.117 127.228 149.416 121.201 149.416 112.909 C 149.416 94.765 134.65 79.999 116.509 79.999 Z  M 128.416 109.999 C 129.629 109.999 130.723 110.73 131.187 111.851 C 131.651 112.972 131.395 114.262 130.537 115.12 L 124.537 121.12 C 123.952 121.705 123.187 121.999 122.416 121.999 C 121.203 121.998 120.109 121.267 119.645 120.147 C 119.181 119.026 119.437 117.736 120.295 116.878 L 126.295 110.878 C 126.857 110.315 127.62 109.999 128.416 109.999 Z  M 104.416 109.999 C 105.211 109.999 105.974 110.315 106.537 110.878 L 118.537 122.878 C 119.099 123.44 119.416 124.203 119.416 124.999 L 119.416 142.998 C 119.416 144.648 118.066 145.998 116.416 145.998 C 114.766 145.998 113.416 144.648 113.416 142.998 L 113.416 126.241 L 102.295 115.12 C 101.437 114.262 101.181 112.972 101.645 111.851 C 102.109 110.73 103.203 109.999 104.416 109.999 Z  M 101.416 157.998 L 101.416 160.998 C 101.416 169.272 108.142 175.998 116.416 175.998 C 124.69 175.998 131.416 169.272 131.416 160.998 L 131.416 158.01 L 101.416 157.998 Z " fill="rgb(0,0,0)"/></g><path d=" M 291 87.68 L 291 165.333 L 280.76 165.333 L 280.76 87.68 L 291 87.68 L 291 87.68 Z  M 308.173 107.627 L 317.507 107.627 L 317.827 114.88 L 317.827 114.88 Q 324.44 106.56 335.107 106.56 L 335.107 106.56 L 335.107 106.56 Q 353.4 106.56 353.56 127.2 L 353.56 127.2 L 353.56 165.333 L 343.693 165.333 L 343.693 127.147 L 343.693 127.147 Q 343.64 120.907 340.84 117.92 L 340.84 117.92 L 340.84 117.92 Q 338.04 114.933 332.12 114.933 L 332.12 114.933 L 332.12 114.933 Q 327.32 114.933 323.693 117.493 L 323.693 117.493 L 323.693 117.493 Q 320.067 120.053 318.04 124.213 L 318.04 124.213 L 318.04 165.333 L 308.173 165.333 L 308.173 107.627 L 308.173 107.627 Z  M 372.813 107.627 L 387.48 151.947 L 401.773 107.627 L 411.853 107.627 L 391.16 165.333 L 383.64 165.333 L 362.733 107.627 L 372.813 107.627 L 372.813 107.627 Z  M 444.6 166.4 L 444.6 166.4 L 444.6 166.4 Q 432.867 166.4 425.507 158.693 L 425.507 158.693 L 425.507 158.693 Q 418.147 150.987 418.147 138.08 L 418.147 138.08 L 418.147 136.267 L 418.147 136.267 Q 418.147 127.68 421.427 120.933 L 421.427 120.933 L 421.427 120.933 Q 424.707 114.187 430.6 110.373 L 430.6 110.373 L 430.6 110.373 Q 436.493 106.56 443.373 106.56 L 443.373 106.56 L 443.373 106.56 Q 454.627 106.56 460.867 113.973 L 460.867 113.973 L 460.867 113.973 Q 467.107 121.387 467.107 135.2 L 467.107 135.2 L 467.107 139.307 L 428.013 139.307 L 428.013 139.307 Q 428.227 147.84 433 153.093 L 433 153.093 L 433 153.093 Q 437.773 158.347 445.133 158.347 L 445.133 158.347 L 445.133 158.347 Q 450.36 158.347 453.987 156.213 L 453.987 156.213 L 453.987 156.213 Q 457.613 154.08 460.333 150.56 L 460.333 150.56 L 466.36 155.253 L 466.36 155.253 Q 459.107 166.4 444.6 166.4 Z  M 443.373 114.667 L 443.373 114.667 L 443.373 114.667 Q 437.4 114.667 433.347 119.013 L 433.347 119.013 L 433.347 119.013 Q 429.293 123.36 428.333 131.2 L 428.333 131.2 L 457.24 131.2 L 457.24 130.453 L 457.24 130.453 Q 456.813 122.933 453.187 118.8 L 453.187 118.8 L 453.187 118.8 Q 449.56 114.667 443.373 114.667 Z  M 478.52 107.627 L 487.853 107.627 L 488.173 114.88 L 488.173 114.88 Q 494.787 106.56 505.453 106.56 L 505.453 106.56 L 505.453 106.56 Q 523.747 106.56 523.907 127.2 L 523.907 127.2 L 523.907 165.333 L 514.04 165.333 L 514.04 127.147 L 514.04 127.147 Q 513.987 120.907 511.187 117.92 L 511.187 117.92 L 511.187 117.92 Q 508.387 114.933 502.467 114.933 L 502.467 114.933 L 502.467 114.933 Q 497.667 114.933 494.04 117.493 L 494.04 117.493 L 494.04 117.493 Q 490.413 120.053 488.387 124.213 L 488.387 124.213 L 488.387 165.333 L 478.52 165.333 L 478.52 107.627 L 478.52 107.627 Z  M 542.307 93.653 L 552.173 93.653 L 552.173 107.627 L 562.947 107.627 L 562.947 115.253 L 552.173 115.253 L 552.173 151.04 L 552.173 151.04 Q 552.173 154.507 553.613 156.24 L 553.613 156.24 L 553.613 156.24 Q 555.053 157.973 558.52 157.973 L 558.52 157.973 L 558.52 157.973 Q 560.227 157.973 563.213 157.333 L 563.213 157.333 L 563.213 165.333 L 563.213 165.333 Q 559.32 166.4 555.64 166.4 L 555.64 166.4 L 555.64 166.4 Q 549.027 166.4 545.667 162.4 L 545.667 162.4 L 545.667 162.4 Q 542.307 158.4 542.307 151.04 L 542.307 151.04 L 542.307 115.253 L 531.8 115.253 L 531.8 107.627 L 542.307 107.627 L 542.307 93.653 L 542.307 93.653 Z  M 585.187 107.627 L 585.187 165.333 L 575.32 165.333 L 575.32 107.627 L 585.187 107.627 L 585.187 107.627 Z  M 574.52 92.32 L 574.52 92.32 L 574.52 92.32 Q 574.52 89.92 575.987 88.267 L 575.987 88.267 L 575.987 88.267 Q 577.453 86.613 580.333 86.613 L 580.333 86.613 L 580.333 86.613 Q 583.213 86.613 584.707 88.267 L 584.707 88.267 L 584.707 88.267 Q 586.2 89.92 586.2 92.32 L 586.2 92.32 L 586.2 92.32 Q 586.2 94.72 584.707 96.32 L 584.707 96.32 L 584.707 96.32 Q 583.213 97.92 580.333 97.92 L 580.333 97.92 L 580.333 97.92 Q 577.453 97.92 575.987 96.32 L 575.987 96.32 L 575.987 96.32 Q 574.52 94.72 574.52 92.32 Z  M 605.347 107.627 L 620.013 151.947 L 634.307 107.627 L 644.387 107.627 L 623.693 165.333 L 616.173 165.333 L 595.267 107.627 L 605.347 107.627 L 605.347 107.627 Z  M 677.133 166.4 L 677.133 166.4 L 677.133 166.4 Q 665.4 166.4 658.04 158.693 L 658.04 158.693 L 658.04 158.693 Q 650.68 150.987 650.68 138.08 L 650.68 138.08 L 650.68 136.267 L 650.68 136.267 Q 650.68 127.68 653.96 120.933 L 653.96 120.933 L 653.96 120.933 Q 657.24 114.187 663.133 110.373 L 663.133 110.373 L 663.133 110.373 Q 669.027 106.56 675.907 106.56 L 675.907 106.56 L 675.907 106.56 Q 687.16 106.56 693.4 113.973 L 693.4 113.973 L 693.4 113.973 Q 699.64 121.387 699.64 135.2 L 699.64 135.2 L 699.64 139.307 L 660.547 139.307 L 660.547 139.307 Q 660.76 147.84 665.533 153.093 L 665.533 153.093 L 665.533 153.093 Q 670.307 158.347 677.667 158.347 L 677.667 158.347 L 677.667 158.347 Q 682.893 158.347 686.52 156.213 L 686.52 156.213 L 686.52 156.213 Q 690.147 154.08 692.867 150.56 L 692.867 150.56 L 698.893 155.253 L 698.893 155.253 Q 691.64 166.4 677.133 166.4 Z  M 675.907 114.667 L 675.907 114.667 L 675.907 114.667 Q 669.933 114.667 665.88 119.013 L 665.88 119.013 L 665.88 119.013 Q 661.827 123.36 660.867 131.2 L 660.867 131.2 L 689.773 131.2 L 689.773 130.453 L 689.773 130.453 Q 689.347 122.933 685.72 118.8 L 685.72 118.8 L 685.72 118.8 Q 682.093 114.667 675.907 114.667 Z " fill="rgb(0,0,0)"/><path d=" M 291 87.68 L 291 165.333 L 280.76 165.333 L 280.76 87.68 L 291 87.68 L 291 87.68 Z  M 308.173 107.627 L 317.507 107.627 L 317.827 114.88 L 317.827 114.88 Q 324.44 106.56 335.107 106.56 L 335.107 106.56 L 335.107 106.56 Q 353.4 106.56 353.56 127.2 L 353.56 127.2 L 353.56 165.333 L 343.693 165.333 L 343.693 127.147 L 343.693 127.147 Q 343.64 120.907 340.84 117.92 L 340.84 117.92 L 340.84 117.92 Q 338.04 114.933 332.12 114.933 L 332.12 114.933 L 332.12 114.933 Q 327.32 114.933 323.693 117.493 L 323.693 117.493 L 323.693 117.493 Q 320.067 120.053 318.04 124.213 L 318.04 124.213 L 318.04 165.333 L 308.173 165.333 L 308.173 107.627 L 308.173 107.627 Z  M 372.813 107.627 L 387.48 151.947 L 401.773 107.627 L 411.853 107.627 L 391.16 165.333 L 383.64 165.333 L 362.733 107.627 L 372.813 107.627 L 372.813 107.627 Z  M 444.6 166.4 L 444.6 166.4 L 444.6 166.4 Q 432.867 166.4 425.507 158.693 L 425.507 158.693 L 425.507 158.693 Q 418.147 150.987 418.147 138.08 L 418.147 138.08 L 418.147 136.267 L 418.147 136.267 Q 418.147 127.68 421.427 120.933 L 421.427 120.933 L 421.427 120.933 Q 424.707 114.187 430.6 110.373 L 430.6 110.373 L 430.6 110.373 Q 436.493 106.56 443.373 106.56 L 443.373 106.56 L 443.373 106.56 Q 454.627 106.56 460.867 113.973 L 460.867 113.973 L 460.867 113.973 Q 467.107 121.387 467.107 135.2 L 467.107 135.2 L 467.107 139.307 L 428.013 139.307 L 428.013 139.307 Q 428.227 147.84 433 153.093 L 433 153.093 L 433 153.093 Q 437.773 158.347 445.133 158.347 L 445.133 158.347 L 445.133 158.347 Q 450.36 158.347 453.987 156.213 L 453.987 156.213 L 453.987 156.213 Q 457.613 154.08 460.333 150.56 L 460.333 150.56 L 466.36 155.253 L 466.36 155.253 Q 459.107 166.4 444.6 166.4 Z  M 443.373 114.667 L 443.373 114.667 L 443.373 114.667 Q 437.4 114.667 433.347 119.013 L 433.347 119.013 L 433.347 119.013 Q 429.293 123.36 428.333 131.2 L 428.333 131.2 L 457.24 131.2 L 457.24 130.453 L 457.24 130.453 Q 456.813 122.933 453.187 118.8 L 453.187 118.8 L 453.187 118.8 Q 449.56 114.667 443.373 114.667 Z  M 478.52 107.627 L 487.853 107.627 L 488.173 114.88 L 488.173 114.88 Q 494.787 106.56 505.453 106.56 L 505.453 106.56 L 505.453 106.56 Q 523.747 106.56 523.907 127.2 L 523.907 127.2 L 523.907 165.333 L 514.04 165.333 L 514.04 127.147 L 514.04 127.147 Q 513.987 120.907 511.187 117.92 L 511.187 117.92 L 511.187 117.92 Q 508.387 114.933 502.467 114.933 L 502.467 114.933 L 502.467 114.933 Q 497.667 114.933 494.04 117.493 L 494.04 117.493 L 494.04 117.493 Q 490.413 120.053 488.387 124.213 L 488.387 124.213 L 488.387 165.333 L 478.52 165.333 L 478.52 107.627 L 478.52 107.627 Z  M 542.307 93.653 L 552.173 93.653 L 552.173 107.627 L 562.947 107.627 L 562.947 115.253 L 552.173 115.253 L 552.173 151.04 L 552.173 151.04 Q 552.173 154.507 553.613 156.24 L 553.613 156.24 L 553.613 156.24 Q 555.053 157.973 558.52 157.973 L 558.52 157.973 L 558.52 157.973 Q 560.227 157.973 563.213 157.333 L 563.213 157.333 L 563.213 165.333 L 563.213 165.333 Q 559.32 166.4 555.64 166.4 L 555.64 166.4 L 555.64 166.4 Q 549.027 166.4 545.667 162.4 L 545.667 162.4 L 545.667 162.4 Q 542.307 158.4 542.307 151.04 L 542.307 151.04 L 542.307 115.253 L 531.8 115.253 L 531.8 107.627 L 542.307 107.627 L 542.307 93.653 L 542.307 93.653 Z  M 585.187 107.627 L 585.187 165.333 L 575.32 165.333 L 575.32 107.627 L 585.187 107.627 L 585.187 107.627 Z  M 574.52 92.32 L 574.52 92.32 L 574.52 92.32 Q 574.52 89.92 575.987 88.267 L 575.987 88.267 L 575.987 88.267 Q 577.453 86.613 580.333 86.613 L 580.333 86.613 L 580.333 86.613 Q 583.213 86.613 584.707 88.267 L 584.707 88.267 L 584.707 88.267 Q 586.2 89.92 586.2 92.32 L 586.2 92.32 L 586.2 92.32 Q 586.2 94.72 584.707 96.32 L 584.707 96.32 L 584.707 96.32 Q 583.213 97.92 580.333 97.92 L 580.333 97.92 L 580.333 97.92 Q 577.453 97.92 575.987 96.32 L 575.987 96.32 L 575.987 96.32 Q 574.52 94.72 574.52 92.32 Z  M 605.347 107.627 L 620.013 151.947 L 634.307 107.627 L 644.387 107.627 L 623.693 165.333 L 616.173 165.333 L 595.267 107.627 L 605.347 107.627 L 605.347 107.627 Z  M 677.133 166.4 L 677.133 166.4 L 677.133 166.4 Q 665.4 166.4 658.04 158.693 L 658.04 158.693 L 658.04 158.693 Q 650.68 150.987 650.68 138.08 L 650.68 138.08 L 650.68 136.267 L 650.68 136.267 Q 650.68 127.68 653.96 120.933 L 653.96 120.933 L 653.96 120.933 Q 657.24 114.187 663.133 110.373 L 663.133 110.373 L 663.133 110.373 Q 669.027 106.56 675.907 106.56 L 675.907 106.56 L 675.907 106.56 Q 687.16 106.56 693.4 113.973 L 693.4 113.973 L 693.4 113.973 Q 699.64 121.387 699.64 135.2 L 699.64 135.2 L 699.64 139.307 L 660.547 139.307 L 660.547 139.307 Q 660.76 147.84 665.533 153.093 L 665.533 153.093 L 665.533 153.093 Q 670.307 158.347 677.667 158.347 L 677.667 158.347 L 677.667 158.347 Q 682.893 158.347 686.52 156.213 L 686.52 156.213 L 686.52 156.213 Q 690.147 154.08 692.867 150.56 L 692.867 150.56 L 698.893 155.253 L 698.893 155.253 Q 691.64 166.4 677.133 166.4 Z  M 675.907 114.667 L 675.907 114.667 L 675.907 114.667 Q 669.933 114.667 665.88 119.013 L 665.88 119.013 L 665.88 119.013 Q 661.827 123.36 660.867 131.2 L 660.867 131.2 L 689.773 131.2 L 689.773 130.453 L 689.773 130.453 Q 689.347 122.933 685.72 118.8 L 685.72 118.8 L 685.72 118.8 Q 682.093 114.667 675.907 114.667 Z " fill="rgb(0,0,0)"/></g></svg>