<svg xmlns="http://www.w3.org/2000/svg" 
  xmlns:xlink="http://www.w3.org/1999/xlink" version="1.1" id="path10" x="0px" y="0px" viewBox="0 0 200 200" height="300px" width="300px">
  <g id="svg-logo">
    <path d="M12,2A10,10 0 0,1 22,12A10,10 0 0,1 12,22A10,10 0 0,1 2,12A10,10 0 0,1 12,2M12,4A8,8 0 0,0 4,12A8,8 0 0,0 12,20A4,4 0 0,1 8,16A4,4 0 0,1 12,12A4,4 0 0,0 16,8A4,4 0 0,0 12,4M12,6.5A1.5,1.5 0 0,1 13.5,8A1.5,1.5 0 0,1 12,9.5A1.5,1.5 0 0,1 10.5,8A1.5,1.5 0 0,1 12,6.5M12,14.5A1.5,1.5 0 0,0 10.5,16A1.5,1.5 0 0,0 12,17.5A1.5,1.5 0 0,0 13.5,16A1.5,1.5 0 0,0 12,14.5Z" />
    <text x="30" y="18" font-family="Arial" text-anchor="middel">Inventive</text>
  </g>
</svg>
